# xmcd CD database file
#
# Track frame offsets:
#	183
#	29178
#	51993
#	74575
#	91860
#	111113
#	138058
#	160273
#	174493
#	194423
#	219390
#	254503
#
# Disc length: 3624 seconds
#
# Revision: 2
# Processed by: cddbd v1.5.2PL0 Copyright (c) Steve Scherf et al.
# Submitted via: CDex 1.51
#
DISCID=b10e260c
DTITLE=Dire Straits - On Every Street
DYEAR=1900
DGENRE=
TTITLE0=calling elvis
TTITLE1=on every street
TTITLE2=when it comes to you
TTITLE3=fade to black
TTITLE4=the bug
TTITLE5=you and your friend
TTITLE6=heavy fuel
TTITLE7=iron hand
TTITLE8=ticket to heaven
TTITLE9=my parties
TTITLE10=planet of new orleans
TTITLE11=how long
EXTD=
EXTT0=
EXTT1=
EXTT2=
EXTT3=
EXTT4=
EXTT5=
EXTT6=
EXTT7=
EXTT8=
EXTT9=
EXTT10=
EXTT11=
PLAYORDER=
